<mxfile host="Electron" modified="2024-04-04T09:23:00.207Z" agent="Mozilla/5.0 (Windows NT 10.0; Win64; x64) AppleWebKit/537.36 (KHTML, like Gecko) draw.io/23.1.5 Chrome/120.0.6099.109 Electron/28.1.0 Safari/537.36" etag="68iOdtQ9kHuafswPqhPY" version="23.1.5" type="device">
  <diagram name="Page-1" id="AZOGa1pywf0R-uvgqBdK">
    <mxGraphModel dx="1509" dy="888" grid="1" gridSize="10" guides="1" tooltips="1" connect="1" arrows="1" fold="1" page="1" pageScale="1" pageWidth="850" pageHeight="1100" math="0" shadow="0">
      <root>
        <mxCell id="0" />
        <mxCell id="1" parent="0" />
        <mxCell id="Xsq3jm0O_ffKHxmwFmHo-32" value="" style="rounded=0;whiteSpace=wrap;html=1;" vertex="1" parent="1">
          <mxGeometry x="130" y="355" width="510" height="350" as="geometry" />
        </mxCell>
        <mxCell id="Xsq3jm0O_ffKHxmwFmHo-29" style="edgeStyle=orthogonalEdgeStyle;rounded=0;orthogonalLoop=1;jettySize=auto;html=1;exitX=0.5;exitY=1;exitDx=0;exitDy=0;entryX=0.5;entryY=0;entryDx=0;entryDy=0;" edge="1" parent="1" source="Xsq3jm0O_ffKHxmwFmHo-1" target="Xsq3jm0O_ffKHxmwFmHo-3">
          <mxGeometry relative="1" as="geometry" />
        </mxCell>
        <mxCell id="Xsq3jm0O_ffKHxmwFmHo-1" value="List services and pods via paas-mediation" style="rounded=0;whiteSpace=wrap;html=1;" vertex="1" parent="1">
          <mxGeometry x="340" y="160" width="120" height="60" as="geometry" />
        </mxCell>
        <mxCell id="Xsq3jm0O_ffKHxmwFmHo-30" style="edgeStyle=orthogonalEdgeStyle;rounded=0;orthogonalLoop=1;jettySize=auto;html=1;exitX=0.5;exitY=1;exitDx=0;exitDy=0;entryX=0.5;entryY=0;entryDx=0;entryDy=0;" edge="1" parent="1" source="Xsq3jm0O_ffKHxmwFmHo-2" target="Xsq3jm0O_ffKHxmwFmHo-1">
          <mxGeometry relative="1" as="geometry" />
        </mxCell>
        <mxCell id="Xsq3jm0O_ffKHxmwFmHo-2" value="Start discovery" style="rounded=0;whiteSpace=wrap;html=1;" vertex="1" parent="1">
          <mxGeometry x="340" y="60" width="120" height="60" as="geometry" />
        </mxCell>
        <mxCell id="Xsq3jm0O_ffKHxmwFmHo-37" style="edgeStyle=orthogonalEdgeStyle;rounded=0;orthogonalLoop=1;jettySize=auto;html=1;exitX=0.5;exitY=1;exitDx=0;exitDy=0;entryX=0.002;entryY=0.789;entryDx=0;entryDy=0;entryPerimeter=0;" edge="1" parent="1" source="Xsq3jm0O_ffKHxmwFmHo-3" target="Xsq3jm0O_ffKHxmwFmHo-54">
          <mxGeometry relative="1" as="geometry">
            <mxPoint x="400" y="390" as="targetPoint" />
          </mxGeometry>
        </mxCell>
        <mxCell id="Xsq3jm0O_ffKHxmwFmHo-3" value="Collect labels and annotations" style="rounded=0;whiteSpace=wrap;html=1;" vertex="1" parent="1">
          <mxGeometry x="340" y="260" width="120" height="60" as="geometry" />
        </mxCell>
        <mxCell id="Xsq3jm0O_ffKHxmwFmHo-34" style="edgeStyle=orthogonalEdgeStyle;rounded=0;orthogonalLoop=1;jettySize=auto;html=1;exitX=0.5;exitY=0;exitDx=0;exitDy=0;entryX=0.5;entryY=0;entryDx=0;entryDy=0;" edge="1" parent="1" source="Xsq3jm0O_ffKHxmwFmHo-6" target="Xsq3jm0O_ffKHxmwFmHo-4">
          <mxGeometry relative="1" as="geometry">
            <Array as="points">
              <mxPoint x="400" y="380" />
              <mxPoint x="470" y="380" />
            </Array>
          </mxGeometry>
        </mxCell>
        <mxCell id="Xsq3jm0O_ffKHxmwFmHo-56" style="edgeStyle=orthogonalEdgeStyle;rounded=0;orthogonalLoop=1;jettySize=auto;html=1;exitX=0.5;exitY=1;exitDx=0;exitDy=0;entryX=0.5;entryY=0;entryDx=0;entryDy=0;" edge="1" parent="1" source="Xsq3jm0O_ffKHxmwFmHo-6" target="Xsq3jm0O_ffKHxmwFmHo-55">
          <mxGeometry relative="1" as="geometry" />
        </mxCell>
        <mxCell id="Xsq3jm0O_ffKHxmwFmHo-6" value="" style="rounded=0;whiteSpace=wrap;html=1;" vertex="1" parent="1">
          <mxGeometry x="145" y="370" width="510" height="350" as="geometry" />
        </mxCell>
        <mxCell id="Xsq3jm0O_ffKHxmwFmHo-42" style="edgeStyle=orthogonalEdgeStyle;rounded=0;orthogonalLoop=1;jettySize=auto;html=1;exitX=0.5;exitY=1;exitDx=0;exitDy=0;entryX=0.5;entryY=0;entryDx=0;entryDy=0;" edge="1" parent="1" source="Xsq3jm0O_ffKHxmwFmHo-4" target="Xsq3jm0O_ffKHxmwFmHo-7">
          <mxGeometry relative="1" as="geometry" />
        </mxCell>
        <mxCell id="Xsq3jm0O_ffKHxmwFmHo-43" style="edgeStyle=orthogonalEdgeStyle;rounded=0;orthogonalLoop=1;jettySize=auto;html=1;exitX=0.5;exitY=1;exitDx=0;exitDy=0;entryX=0.5;entryY=0;entryDx=0;entryDy=0;" edge="1" parent="1" source="Xsq3jm0O_ffKHxmwFmHo-4" target="Xsq3jm0O_ffKHxmwFmHo-12">
          <mxGeometry relative="1" as="geometry" />
        </mxCell>
        <mxCell id="Xsq3jm0O_ffKHxmwFmHo-4" value="Build discovery URLs&lt;br&gt;with customization" style="rounded=0;whiteSpace=wrap;html=1;" vertex="1" parent="1">
          <mxGeometry x="340" y="390" width="120" height="60" as="geometry" />
        </mxCell>
        <mxCell id="Xsq3jm0O_ffKHxmwFmHo-39" style="edgeStyle=orthogonalEdgeStyle;rounded=0;orthogonalLoop=1;jettySize=auto;html=1;exitX=0.5;exitY=1;exitDx=0;exitDy=0;entryX=0.5;entryY=0;entryDx=0;entryDy=0;" edge="1" parent="1" source="Xsq3jm0O_ffKHxmwFmHo-7" target="Xsq3jm0O_ffKHxmwFmHo-22">
          <mxGeometry relative="1" as="geometry" />
        </mxCell>
        <mxCell id="Xsq3jm0O_ffKHxmwFmHo-7" value="Get baseline&lt;br style=&quot;border-color: var(--border-color);&quot;&gt;(see details below)" style="rounded=0;whiteSpace=wrap;html=1;" vertex="1" parent="1">
          <mxGeometry x="460" y="500" width="120" height="60" as="geometry" />
        </mxCell>
        <mxCell id="Xsq3jm0O_ffKHxmwFmHo-40" style="edgeStyle=orthogonalEdgeStyle;rounded=0;orthogonalLoop=1;jettySize=auto;html=1;exitX=0.5;exitY=1;exitDx=0;exitDy=0;entryX=0.5;entryY=0;entryDx=0;entryDy=0;" edge="1" parent="1" source="Xsq3jm0O_ffKHxmwFmHo-12" target="Xsq3jm0O_ffKHxmwFmHo-22">
          <mxGeometry relative="1" as="geometry">
            <mxPoint x="400" y="600" as="targetPoint" />
          </mxGeometry>
        </mxCell>
        <mxCell id="Xsq3jm0O_ffKHxmwFmHo-12" value="Get documents&lt;br style=&quot;border-color: var(--border-color);&quot;&gt;(see details below)" style="rounded=0;whiteSpace=wrap;html=1;" vertex="1" parent="1">
          <mxGeometry x="210" y="500" width="120" height="60" as="geometry" />
        </mxCell>
        <mxCell id="Xsq3jm0O_ffKHxmwFmHo-22" value="Save result" style="rounded=0;whiteSpace=wrap;html=1;" vertex="1" parent="1">
          <mxGeometry x="340" y="610" width="120" height="60" as="geometry" />
        </mxCell>
        <mxCell id="Xsq3jm0O_ffKHxmwFmHo-54" value="For each service in parallel" style="text;html=1;align=center;verticalAlign=middle;resizable=0;points=[];autosize=1;strokeColor=none;fillColor=none;" vertex="1" parent="1">
          <mxGeometry x="400" y="330" width="170" height="30" as="geometry" />
        </mxCell>
        <mxCell id="Xsq3jm0O_ffKHxmwFmHo-55" value="Update discovery status" style="rounded=0;whiteSpace=wrap;html=1;" vertex="1" parent="1">
          <mxGeometry x="340" y="750" width="120" height="60" as="geometry" />
        </mxCell>
      </root>
    </mxGraphModel>
  </diagram>
</mxfile>
